HIERARCHY
ROOT Root
{
	OFFSET 0.00000 0.00000 0.00000
	CHANNELS 6 Xposition Yposition Zposition Zrotation Xrotation Yrotation
	JOINT Hip
	{
		OFFSET 0 0 0	
		CHANNELS 3 Zrotation Xrotation Yrotation
		JOINT Tummy
		{
			OFFSET 0 0.04 0	
			CHANNELS 3 Zrotation Xrotation Yrotation
			JOINT ChestBottom
			{
				OFFSET 0 0.194 0	
				CHANNELS 3 Zrotation Xrotation Yrotation
				JOINT ChestTop
				{
					OFFSET 0 0.166 0	
					CHANNELS 3 Zrotation Xrotation Yrotation
					JOINT LeftCollar
					{
						OFFSET 0 0.1 0	
						CHANNELS 3 Zrotation Xrotation Yrotation
						JOINT LeftUpperArm
						{
							OFFSET 0.156 -0.02 0.03	
							CHANNELS 3 Zrotation Xrotation Yrotation
							JOINT LeftForeArm
							{
								OFFSET 0.035 -0.27 -0.01	
								CHANNELS 3 Zrotation Xrotation Yrotation
								JOINT LeftHand
								{
									OFFSET 0.01 -0.27 0.01	
									CHANNELS 3 Zrotation Xrotation Yrotation
									End Site
									{
										OFFSET 0 -0.15 0
									}
								}
							}
						}
					}
					JOINT RightCollar
					{
						OFFSET 0 0.1 0	
						CHANNELS 3 Zrotation Xrotation Yrotation
						JOINT RightUpperArm
						{
							OFFSET -0.156 -0.02 0.03	
							CHANNELS 3 Zrotation Xrotation Yrotation
							JOINT RightForeArm
							{
								OFFSET -0.035 -0.27 -0.01	
								CHANNELS 3 Zrotation Xrotation Yrotation
								JOINT RightHand
								{
									OFFSET -0.01 -0.27 0.01	
									CHANNELS 3 Zrotation Xrotation Yrotation
									End Site
									{
										OFFSET 0 -0.15 0
									}
								}
							}
						}
					}
					JOINT Neck
					{
						OFFSET 0 0.1 0	
						CHANNELS 3 Zrotation Xrotation Yrotation
						JOINT Head
						{
							OFFSET 0 0.127 0.03	
							CHANNELS 3 Zrotation Xrotation Yrotation
							End Site
							{
								OFFSET 0 0.127 0.03
							}
						}
					}
				}
			}
		}
	}
	JOINT LeftHip
	{
		OFFSET 0 0 0	
		CHANNELS 3 Zrotation Xrotation Yrotation
		JOINT LeftThigh
		{
			OFFSET 0.088 -0.06 0	
			CHANNELS 3 Zrotation Xrotation Yrotation
			JOINT LeftLowerLeg
			{
				OFFSET 0 -0.39 0.02	
				CHANNELS 3 Zrotation Xrotation Yrotation
				JOINT LeftFootTop
				{
					OFFSET 0 -0.43 -0.02	
					CHANNELS 3 Zrotation Xrotation Yrotation
					JOINT LeftFootFront
					{
						OFFSET 0 -0.07 0.085	
						CHANNELS 3 Zrotation Xrotation Yrotation
						End Site
						{
							OFFSET 0 -0.005 0.09
						}
					}
				}
				JOINT LeftHeel
				{
					OFFSET 0 -0.43 -0.02	
					CHANNELS 3 Zrotation Xrotation Yrotation
					End Site
					{
						OFFSET 0 -0.075 -0.05
					}
				}
			}
		}
	}
	JOINT RightHip
	{
		OFFSET 0 0 0	
		CHANNELS 3 Zrotation Xrotation Yrotation
		JOINT RightThigh
		{
			OFFSET -0.088 -0.06 0	
			CHANNELS 3 Zrotation Xrotation Yrotation
			JOINT RightLowerLeg
			{
				OFFSET 0 -0.39 0.02	
				CHANNELS 3 Zrotation Xrotation Yrotation
				JOINT RightFootTop
				{
					OFFSET 0 -0.43 -0.02	
					CHANNELS 3 Zrotation Xrotation Yrotation
					JOINT RightFootFront
					{
						OFFSET 0 -0.07 0.085	
						CHANNELS 3 Zrotation Xrotation Yrotation
						End Site
						{
							OFFSET 0 -0.005 0.09
						}
					}
				}
				JOINT RightHeel
				{
					OFFSET 0 -0.43 -0.02	
					CHANNELS 3 Zrotation Xrotation Yrotation
					End Site
					{
						OFFSET 0 -0.075 -0.05
					}
				}
			}
		}
	}
}
MOTION
Frames: 24
Frame Time: 0.05
0 0.955 0 -0 0 -0 -0 0 -0 -0 0 -0 3.4624 11.963 -25.85 -0 0 -0 -0 0 -0 7.8297 -18.156 69.408 -86.63 -49.381 -72.954 -0 0 -0 -0 0 -0 7.029 -16.682 35.14 97.946 -35.439 41.355 -0 0 -0 2.4875 -17.085 12.925 2.4875 -17.085 12.925 -0 0 -0 -0 0 -0 -0 0 -0 -0 0 -0 -0 0 -0 -0 0 -0 -0 0 -0 -0 0 -0 -0 0 -0 -0 0 -0 -0 0 -0 -0 0 -0 
0 0.955 0 -0 0 -0 -0 0 -0 -0 0 -0 3.4443 11.964 -25.841 -0 0 -0 -0 0 -0 7.8975 -18.206 69.431 -86.509 -49.349 -72.862 -0 0 -0 -0 0 -0 7.0552 -16.672 35.112 97.923 -35.45 41.312 -0 0 -0 2.4571 -17.063 12.916 2.4571 -17.063 12.916 -0 0 -0 -0 0 -0 -0 0 -0 -0 0 -0 -0 0 -0 -0 0 -0 -0 0 -0 -0 0 -0 -0 0 -0 -0 0 -0 -0 0 -0 -0 0 -0 
0 0.955 0 -0 0 -0 -0 0 -0 -0 0 -0 3.4594 11.951 -25.854 -0 0 -0 -0 0 -0 7.9108 -18.249 69.466 -86.376 -49.311 -72.752 -0 0 -0 -0 0 -0 7.059 -16.66 35.132 97.883 -35.475 41.253 -0 0 -0 2.4561 -17.006 12.965 2.4561 -17.006 12.965 -0 0 -0 -0 0 -0 -0 0 -0 -0 0 -0 -0 0 -0 -0 0 -0 -0 0 -0 -0 0 -0 -0 0 -0 -0 0 -0 -0 0 -0 -0 0 -0 
0 0.955 0 -0 0 -0 -0 0 -0 -0 0 -0 3.467 11.917 -25.843 -0 0 -0 -0 0 -0 7.9131 -18.252 69.426 -86.235 -49.322 -72.619 -0 0 -0 -0 0 -0 7.099 -16.653 35.107 97.81 -35.457 41.191 -0 0 -0 2.4505 -16.971 12.966 2.4505 -16.971 12.966 -0 0 -0 -0 0 -0 -0 0 -0 -0 0 -0 -0 0 -0 -0 0 -0 -0 0 -0 -0 0 -0 -0 0 -0 -0 0 -0 -0 0 -0 -0 0 -0 
0 0.955 0 -0 0 -0 -0 0 -0 -0 0 -0 3.4911 11.93 -25.834 -0 0 -0 -0 0 -0 7.9298 -18.295 69.402 -86.018 -49.272 -72.426 -0 0 -0 -0 0 -0 7.12 -16.682 35.081 97.759 -35.446 41.153 -0 0 -0 2.4559 -16.951 12.959 2.4559 -16.951 12.959 -0 0 -0 -0 0 -0 -0 0 -0 -0 0 -0 -0 0 -0 -0 0 -0 -0 0 -0 -0 0 -0 -0 0 -0 -0 0 -0 -0 0 -0 -0 0 -0 
0 0.955 0 -0 0 -0 -0 0 -0 -0 0 -0 3.5231 11.899 -25.84 -0 0 -0 -0 0 -0 7.9231 -18.324 69.382 -85.831 -49.243 -72.307 -0 0 -0 -0 0 -0 7.1193 -16.676 35.062 97.743 -35.477 41.103 -0 0 -0 2.4591 -16.903 12.959 2.4591 -16.903 12.959 -0 0 -0 -0 0 -0 -0 0 -0 -0 0 -0 -0 0 -0 -0 0 -0 -0 0 -0 -0 0 -0 -0 0 -0 -0 0 -0 -0 0 -0 -0 0 -0 
0 0.955 0 -0 0 -0 -0 0 -0 -0 0 -0 3.5244 11.894 -25.838 -0 0 -0 -0 0 -0 7.9724 -18.384 69.416 -85.626 -49.17 -72.179 -0 0 -0 -0 0 -0 7.1576 -16.695 35.057 97.702 -35.496 41.044 -0 0 -0 2.4401 -16.8 12.97 2.4401 -16.8 12.97 -0 0 -0 -0 0 -0 -0 0 -0 -0 0 -0 -0 0 -0 -0 0 -0 -0 0 -0 -0 0 -0 -0 0 -0 -0 0 -0 -0 0 -0 -0 0 -0 
0 0.955 0 -0 0 -0 -0 0 -0 -0 0 -0 3.5284 11.868 -25.827 -0 0 -0 -0 0 -0 7.9789 -18.466 69.43 -85.353 -49.101 -72.018 -0 0 -0 -0 0 -0 7.1984 -16.701 35.059 97.622 -35.518 40.949 -0 0 -0 2.387 -16.542 13.004 2.387 -16.542 13.004 -0 0 -0 -0 0 -0 -0 0 -0 -0 0 -0 -0 0 -0 -0 0 -0 -0 0 -0 -0 0 -0 -0 0 -0 -0 0 -0 -0 0 -0 -0 0 -0 
0 0.955 0 -0 0 -0 -0 0 -0 -0 0 -0 3.5233 11.812 -25.787 -0 0 -0 -0 0 -0 8.0147 -18.53 69.283 -84.935 -49.171 -71.749 -0 0 -0 -0 0 -0 7.2242 -16.691 35.044 97.534 -35.534 40.843 -0 0 -0 2.3488 -16.033 13.089 2.3488 -16.033 13.089 -0 0 -0 -0 0 -0 -0 0 -0 -0 0 -0 -0 0 -0 -0 0 -0 -0 0 -0 -0 0 -0 -0 0 -0 -0 0 -0 -0 0 -0 -0 0 -0 
0 0.955 0 -0 0 -0 -0 0 -0 -0 0 -0 3.4642 11.658 -25.703 -0 0 -0 -0 0 -0 8.0963 -18.497 69.144 -84.4 -49.16 -71.492 -0 0 -0 -0 0 -0 7.2437 -16.59 35.006 97.418 -35.577 40.722 -0 0 -0 2.423 -15.341 13.212 2.423 -15.341 13.212 -0 0 -0 -0 0 -0 -0 0 -0 -0 0 -0 -0 0 -0 -0 0 -0 -0 0 -0 -0 0 -0 -0 0 -0 -0 0 -0 -0 0 -0 -0 0 -0 
0 0.955 0 -0 0 -0 -0 0 -0 -0 0 -0 3.4412 11.599 -25.662 -0 0 -0 -0 0 -0 8.3011 -18.487 69.108 -83.776 -49.01 -70.99 -0 0 -0 -0 0 -0 7.2665 -16.57 35.023 97.318 -35.617 40.64 -0 0 -0 2.4347 -14.713 13.293 2.4347 -14.713 13.293 -0 0 -0 -0 0 -0 -0 0 -0 -0 0 -0 -0 0 -0 -0 0 -0 -0 0 -0 -0 0 -0 -0 0 -0 -0 0 -0 -0 0 -0 -0 0 -0 
0 0.955 0 -0 0 -0 -0 0 -0 -0 0 -0 3.4173 11.575 -25.514 -0 0 -0 -0 0 -0 8.5816 -18.508 68.901 -82.643 -48.764 -70.083 -0 0 -0 -0 0 -0 7.2831 -16.62 34.907 97.213 -35.655 40.535 -0 0 -0 2.414 -14.174 13.193 2.414 -14.174 13.193 -0 0 -0 -0 0 -0 -0 0 -0 -0 0 -0 -0 0 -0 -0 0 -0 -0 0 -0 -0 0 -0 -0 0 -0 -0 0 -0 -0 0 -0 -0 0 -0 
0 0.955 0 -0 0 -0 -0 0 -0 -0 0 -0 3.4358 11.535 -25.381 -0 0 -0 -0 0 -0 8.78 -18.559 68.599 -81.003 -48.463 -68.773 -0 0 -0 -0 0 -0 7.3029 -16.709 34.725 96.982 -35.611 40.258 -0 0 -0 2.5217 -13.665 13.112 2.5217 -13.665 13.112 -0 0 -0 -0 0 -0 -0 0 -0 -0 0 -0 -0 0 -0 -0 0 -0 -0 0 -0 -0 0 -0 -0 0 -0 -0 0 -0 -0 0 -0 -0 0 -0 
0 0.955 0 -0 0 -0 -0 0 -0 -0 0 -0 3.4786 11.491 -25.269 -0 0 -0 -0 0 -0 8.9692 -18.613 68.123 -79.173 -48.207 -67.22 -0 0 -0 -0 0 -0 7.3253 -16.807 34.584 96.721 -35.577 39.926 -0 0 -0 2.4483 -13.348 13.082 2.4483 -13.348 13.082 -0 0 -0 -0 0 -0 -0 0 -0 -0 0 -0 -0 0 -0 -0 0 -0 -0 0 -0 -0 0 -0 -0 0 -0 -0 0 -0 -0 0 -0 -0 0 -0 
0 0.955 0 -0 0 -0 -0 0 -0 -0 0 -0 3.5822 11.385 -25.166 -0 0 -0 -0 0 -0 9.0438 -18.604 67.981 -77.622 -47.542 -66.002 -0 0 -0 -0 0 -0 7.2766 -16.861 34.454 96.495 -35.539 39.693 -0 0 -0 2.3124 -13.157 13.072 2.3124 -13.157 13.072 -0 0 -0 -0 0 -0 -0 0 -0 -0 0 -0 -0 0 -0 -0 0 -0 -0 0 -0 -0 0 -0 -0 0 -0 -0 0 -0 -0 0 -0 -0 0 -0 
0 0.955 0 -0 0 -0 -0 0 -0 -0 0 -0 3.6899 11.295 -25.098 -0 0 -0 -0 0 -0 9.2331 -18.606 67.71 -76.068 -46.977 -64.787 -0 0 -0 -0 0 -0 7.2301 -16.916 34.377 96.279 -35.493 39.519 -0 0 -0 2.1764 -13.05 13.025 2.1764 -13.05 13.025 -0 0 -0 -0 0 -0 -0 0 -0 -0 0 -0 -0 0 -0 -0 0 -0 -0 0 -0 -0 0 -0 -0 0 -0 -0 0 -0 -0 0 -0 -0 0 -0 
0 0.955 0 -0 0 -0 -0 0 -0 -0 0 -0 3.7834 11.207 -25.049 -0 0 -0 -0 0 -0 9.5319 -18.705 67.3 -74.286 -46.374 -63.608 -0 0 -0 -0 0 -0 7.2045 -16.999 34.315 96.035 -35.458 39.232 -0 0 -0 2.0291 -13.034 12.903 2.0291 -13.034 12.903 -0 0 -0 -0 0 -0 -0 0 -0 -0 0 -0 -0 0 -0 -0 0 -0 -0 0 -0 -0 0 -0 -0 0 -0 -0 0 -0 -0 0 -0 -0 0 -0 
0 0.955 0 -0 0 -0 -0 0 -0 -0 0 -0 3.9131 11.211 -24.986 -0 0 -0 -0 0 -0 9.8152 -18.892 66.922 -72.85 -45.576 -62.448 -0 0 -0 -0 0 -0 7.2227 -17.237 34.196 95.739 -35.352 38.816 -0 0 -0 1.8287 -13.118 12.699 1.8287 -13.118 12.699 -0 0 -0 -0 0 -0 -0 0 -0 -0 0 -0 -0 0 -0 -0 0 -0 -0 0 -0 -0 0 -0 -0 0 -0 -0 0 -0 -0 0 -0 -0 0 -0 
0 0.955 0 -0 0 -0 -0 0 -0 -0 0 -0 4.0232 11.209 -24.929 -0 0 -0 -0 0 -0 9.9363 -19.115 66.466 -71.89 -44.965 -61.827 -0 0 -0 -0 0 -0 7.2828 -17.445 34.077 95.342 -35.204 38.415 -0 0 -0 1.5744 -13.254 12.418 1.5744 -13.254 12.418 -0 0 -0 -0 0 -0 -0 0 -0 -0 0 -0 -0 0 -0 -0 0 -0 -0 0 -0 -0 0 -0 -0 0 -0 -0 0 -0 -0 0 -0 -0 0 -0 
0 0.955 0 -0 0 -0 -0 0 -0 -0 0 -0 4.0969 11.097 -24.934 -0 0 -0 -0 0 -0 9.8882 -19.177 66.218 -71.257 -44.558 -61.81 -0 0 -0 -0 0 -0 7.3404 -17.469 34.009 94.93 -35.034 38.017 -0 0 -0 1.2729 -13.521 12.067 1.2729 -13.521 12.067 -0 0 -0 -0 0 -0 -0 0 -0 -0 0 -0 -0 0 -0 -0 0 -0 -0 0 -0 -0 0 -0 -0 0 -0 -0 0 -0 -0 0 -0 -0 0 -0 
0 0.955 0 -0 0 -0 -0 0 -0 -0 0 -0 4.2029 11.031 -24.996 -0 0 -0 -0 0 -0 9.7304 -19.231 66.094 -70.734 -44.391 -61.745 -0 0 -0 -0 0 -0 7.3445 -17.501 34.034 94.715 -34.912 37.764 -0 0 -0 0.93098 -14.114 11.623 0.93098 -14.114 11.623 -0 0 -0 -0 0 -0 -0 0 -0 -0 0 -0 -0 0 -0 -0 0 -0 -0 0 -0 -0 0 -0 -0 0 -0 -0 0 -0 -0 0 -0 -0 0 -0 
0 0.955 0 -0 0 -0 -0 0 -0 -0 0 -0 4.295 11.005 -25.057 -0 0 -0 -0 0 -0 9.521 -19.256 66.102 -70.61 -44.358 -61.887 -0 0 -0 -0 0 -0 7.2562 -17.502 34.128 94.678 -34.925 37.712 -0 0 -0 0.62557 -14.914 10.985 0.62557 -14.914 10.985 -0 0 -0 -0 0 -0 -0 0 -0 -0 0 -0 -0 0 -0 -0 0 -0 -0 0 -0 -0 0 -0 -0 0 -0 -0 0 -0 -0 0 -0 -0 0 -0 
0 0.955 0 -0 0 -0 -0 0 -0 -0 0 -0 4.3041 10.999 -25.083 -0 0 -0 -0 0 -0 9.3303 -19.195 66.189 -71 -44.379 -62.062 -0 0 -0 -0 0 -0 7.1805 -17.51 34.271 94.757 -35.041 37.777 -0 0 -0 0.32924 -15.654 10.233 0.32924 -15.654 10.233 -0 0 -0 -0 0 -0 -0 0 -0 -0 0 -0 -0 0 -0 -0 0 -0 -0 0 -0 -0 0 -0 -0 0 -0 -0 0 -0 -0 0 -0 -0 0 -0 
0 0.955 0 -0 0 -0 -0 0 -0 -0 0 -0 4.2449 11.059 -24.96 -0 0 -0 -0 0 -0 9.1696 -19.046 65.999 -71.55 -44.68 -62.344 -0 0 -0 -0 0 -0 7.1965 -17.593 34.317 94.749 -35.123 37.733 -0 0 -0 0.052808 -16.343 9.4492 0.052807 -16.343 9.4492 -0 0 -0 -0 0 -0 -0 0 -0 -0 0 -0 -0 0 -0 -0 0 -0 -0 0 -0 -0 0 -0 -0 0 -0 -0 0 -0 -0 0 -0 -0 0 -0 
